<svg width="474" height="474" viewBox="0 0 474 474" fill="none" xmlns="http://www.w3.org/2000/svg">
<g clip-path="url(#clip0_173_126)">
<path d="M341.377 47.1323V89.9666C349.028 89.9666 355.266 96.1938 355.266 103.855V136.848V142.798L398.1 110.739V103.855C398.1 72.5749 372.647 47.1323 341.377 47.1323Z" fill="#1D1D21"/>
<path d="M79.2455 89.9666H256.476L257.054 47.1323H79.2455C47.9204 47.1323 22.5223 72.5304 22.5223 103.855V365.976C22.5223 397.301 47.9204 422.699 79.2455 422.699H257.054V379.865H79.2455C71.5727 379.865 65.3566 373.649 65.3566 365.976V103.855C65.3677 96.1826 71.5838 89.9666 79.2455 89.9666Z" fill="#1D1D21"/>
<path d="M355.266 352.465H398.1V199.098L355.266 230.857V352.465Z" fill="#1D1D21"/>
<path d="M371.423 419.986H289.881C285.51 419.986 281.952 416.461 281.907 412.091L278.327 38.4476C278.282 34.0441 281.819 30.4412 286.222 30.3967L313.11 30.141C317.514 30.0965 321.117 33.6327 321.161 38.0362L324.341 369.257C324.386 373.627 327.944 377.152 332.314 377.152H371.423C375.827 377.152 379.397 380.721 379.397 385.125V412.013C379.397 416.405 375.827 419.986 371.423 419.986Z" fill="#B7C4F2"/>
<path d="M179.704 330.092L111.16 242.144C106.578 236.272 107.635 227.799 113.506 223.229L126.027 213.476C131.899 208.895 140.372 209.951 144.942 215.823L195.283 280.408L433.729 102.666C439.556 98.0397 448.04 99.0071 452.666 104.834L462.541 117.266C467.167 123.093 466.199 131.578 460.372 136.204L198.719 332.371C192.847 337.031 184.307 336.008 179.704 330.092Z" fill="#4C6BDA"/>
</g>
<defs>
<clipPath id="clip0_173_126">
<rect width="474" height="474" fill="white"/>
</clipPath>
</defs>
</svg>
