<svg width="48" height="48" viewBox="0 0 48 48" fill="none" xmlns="http://www.w3.org/2000/svg">
<rect width="48" height="48" rx="9" fill="white"/>
<path d="M23.9619 11.9261C26.4758 11.9261 28.5325 10.047 28.8372 7.60941C27.2883 7.22853 25.6632 7 23.9619 7C22.2861 7 20.6356 7.22853 19.0867 7.60941C19.3914 10.047 21.4481 11.9261 23.9619 11.9261ZM7.60941 19.0866C10.0471 19.3914 11.9261 21.4481 11.9261 23.9619C11.9261 26.4758 10.0471 28.5326 7.60941 28.8372C7.20314 27.2883 7 25.6378 7 23.9619C7 22.2861 7.20314 20.6356 7.60941 19.0866ZM16.3442 23.962C16.3442 24.8174 15.6507 25.5111 14.7953 25.5111C13.9399 25.5111 13.2464 24.8174 13.2464 23.962C13.2464 23.1066 13.9399 22.4131 14.7953 22.4131C15.6507 22.4131 16.3442 23.1066 16.3442 23.962ZM36.0739 23.9619C36.0739 26.4758 37.953 28.5326 40.3906 28.8372C40.7969 27.2883 41 25.6378 41 23.9619C41 22.2861 40.7969 20.6356 40.3906 19.0866C37.953 19.3914 36.0739 21.4481 36.0739 23.9619ZM34.7533 23.962C34.7533 24.8174 34.0599 25.5111 33.2045 25.5111C32.349 25.5111 31.6556 24.8174 31.6556 23.962C31.6556 23.1066 32.349 22.4131 33.2045 22.4131C34.0599 22.4131 34.7533 23.1066 34.7533 23.962ZM23.9619 36.074C21.4481 36.074 19.3914 37.953 19.0867 40.3906C20.6356 40.797 22.2861 41 23.9619 41C25.6379 41 27.2883 40.797 28.8372 40.3906C28.5325 37.953 26.4758 36.074 23.9619 36.074ZM25.511 33.2298C25.511 34.0853 24.8176 34.7787 23.9621 34.7787C23.1066 34.7787 22.4131 34.0853 22.4131 33.2298C22.4131 32.3744 23.1066 31.681 23.9621 31.681C24.8176 31.681 25.511 32.3744 25.511 33.2298ZM25.511 14.7953C25.511 15.6507 24.8176 16.3442 23.9621 16.3442C23.1066 16.3442 22.4131 15.6507 22.4131 14.7953C22.4131 13.9399 23.1066 13.2464 23.9621 13.2464C24.8176 13.2464 25.511 13.9399 25.511 14.7953ZM32.5192 32.5189C30.7419 34.2963 30.6148 37.0896 32.113 39.0193C34.9569 37.3434 37.3437 34.9566 38.9943 32.138C37.0897 30.6145 34.2966 30.7416 32.5192 32.5189ZM32.0366 30.4876C32.0366 31.343 31.3432 32.0365 30.4876 32.0365C29.6322 32.0365 28.9387 31.343 28.9387 30.4876C28.9387 29.6322 29.6322 28.9388 30.4876 28.9388C31.3432 28.9388 32.0366 29.6322 32.0366 30.4876ZM15.4557 15.4558C17.2332 13.6783 17.3601 10.8852 15.862 8.95538C13.0181 10.6313 10.6312 13.0181 8.98075 15.8366C10.8852 17.3601 13.6783 17.2078 15.4557 15.4558ZM19.0103 17.4614C19.0103 18.3168 18.3168 19.0103 17.4614 19.0103C16.6059 19.0103 15.9125 18.3168 15.9125 17.4614C15.9125 16.6059 16.6059 15.9125 17.4614 15.9125C18.3168 15.9125 19.0103 16.6059 19.0103 17.4614ZM32.4937 15.4304C34.2711 17.2078 37.0642 17.3347 38.9939 15.8366C37.3182 12.9927 34.9313 10.6059 32.1128 8.95538C30.5893 10.8598 30.7415 13.6529 32.4937 15.4304ZM32.0366 17.4614C32.0366 18.3168 31.3432 19.0103 30.4876 19.0103C29.6322 19.0103 28.9387 18.3168 28.9387 17.4614C28.9387 16.6059 29.6322 15.9125 30.4876 15.9125C31.3432 15.9125 32.0366 16.6059 32.0366 17.4614ZM15.4304 32.4939C13.6529 30.7164 10.8598 30.5895 8.92999 32.0875C10.6059 34.9315 12.9927 37.3184 15.8112 38.9943C17.3348 37.0644 17.2078 34.2713 15.4304 32.4939ZM19.0103 30.4876C19.0103 31.343 18.3168 32.0365 17.4614 32.0365C16.6059 32.0365 15.9125 31.343 15.9125 30.4876C15.9125 29.6322 16.6059 28.9388 17.4614 28.9388C18.3168 28.9388 19.0103 29.6322 19.0103 30.4876Z" fill="#E72429"/>
</svg>
