<svg width="48" height="48" viewBox="0 0 48 48" fill="none" xmlns="http://www.w3.org/2000/svg">
<path d="M40.8 0H7.2C3.22355 0 0 3.22355 0 7.2V40.8C0 44.7765 3.22355 48 7.2 48H40.8C44.7765 48 48 44.7765 48 40.8V7.2C48 3.22355 44.7765 0 40.8 0Z" fill="white"/>
<path d="M9.375 31.875H16.3125V16.3125H31.875V9.37497H12.8438C10.5312 9.37497 9.375 10.4687 9.375 12.6562" fill="#4285F4"/>
<path d="M31.6875 9.37497V16.5H38.625V12.6562C38.625 10.4687 37.5312 9.37497 35.3438 9.37497" fill="#1967D2"/>
<path d="M31.6875 16.3125H38.625V31.6875H31.6875" fill="#FBBC04"/>
<path d="M9.375 31.6875V35.3438C9.375 37.5312 10.4688 38.625 12.6562 38.625H16.5V31.6875" fill="#188038"/>
<path d="M16.3123 31.6875H31.6873V38.625H16.3123" fill="#34A853"/>
<path d="M31.6875 38.625V31.6875H38.625" fill="#EA4335"/>
<path d="M19.125 21.4688C19.2228 21.0929 19.4387 20.7492 19.748 20.4768C20.0573 20.2043 20.4477 20.0141 20.8747 19.9277C21.3017 19.8412 21.7482 19.8621 22.1635 19.9879C22.5788 20.1137 22.9461 20.3394 23.2238 20.6392C23.5015 20.9391 23.6783 21.3012 23.7342 21.6842C23.7901 22.0673 23.7228 22.456 23.5399 22.8061C23.3571 23.1562 23.066 23.4538 22.6999 23.6648C22.3338 23.8759 21.9072 23.992 21.4688 24M21.4688 24H20.625M21.4688 24C21.906 24.0123 22.3313 24.132 22.6963 24.3456C23.0613 24.5592 23.3516 24.8582 23.5343 25.2087C23.7169 25.5593 23.7847 25.9474 23.7299 26.3291C23.6751 26.7109 23.4999 27.071 23.2242 27.3688C22.9484 27.6666 22.5831 27.8902 22.1696 28.0142C21.7561 28.1382 21.3109 28.1578 20.8844 28.0706C20.4578 27.9835 20.067 27.7931 19.756 27.5211C19.4451 27.249 19.2265 26.9062 19.125 26.5313M25.3125 21.6563L27.8438 19.875H28.2188V19.2188V28.875" stroke="#4285F4" stroke-width="0.743227" stroke-linejoin="bevel"/>
</svg>
