<svg width="865" height="866" viewBox="0 0 865 866" fill="none" xmlns="http://www.w3.org/2000/svg">
<path fill-rule="evenodd" clip-rule="evenodd" d="M470.86 140.079C580.846 125.735 707.492 55.3467 790.725 129.168C874.302 203.294 824.583 339.206 821.799 451.334C819.131 558.732 844.921 676.547 775.113 757.776C702.397 842.388 579.637 882.489 470.86 859.686C373.589 839.294 341.306 723.34 271.441 652.188C202.355 581.829 80.2174 549.742 69.8963 451.334C59.3066 350.365 144.491 265.013 224.334 203.033C294.138 148.847 383.46 151.477 470.86 140.079Z" fill="#4C6BDA" fill-opacity="0.34"/>
<path fill-rule="evenodd" clip-rule="evenodd" d="M404.167 92.1133C511.311 63.429 627.599 -23.0044 719.818 39.2287C812.418 101.719 781.006 242.989 792.993 354.51C804.473 461.326 845.534 574.726 787.015 664.43C726.059 757.87 609.639 813.769 498.809 805.469C399.701 798.048 352.448 687.347 273.832 626.001C196.092 565.339 70.7956 549.595 47.6216 453.399C23.8446 354.7 97.0634 258.886 168.062 186.944C230.132 124.048 319.025 114.907 404.167 92.1133Z" fill="#4C6BDA" fill-opacity="0.34"/>
</svg>
