<svg width="619" height="235" viewBox="0 0 619 235" fill="none" xmlns="http://www.w3.org/2000/svg">
<path d="M170.07 34.7142V52.8186C173.303 52.8186 175.94 55.4506 175.94 58.6889V72.6338V75.1483L194.044 61.5982V58.6889C194.044 45.4678 183.286 34.7142 170.07 34.7142Z" fill="#1D1D21"/>
<path d="M59.2765 52.8186H134.185L134.429 34.7142H59.2765C46.0366 34.7142 35.3018 45.449 35.3018 58.6889V169.477C35.3018 182.717 46.0366 193.452 59.2765 193.452H134.429V175.348H59.2765C56.0335 175.348 53.4062 172.72 53.4062 169.477V58.6889C53.4109 55.4459 56.0382 52.8186 59.2765 52.8186Z" fill="#1D1D21"/>
<path d="M175.94 163.767H194.044V98.9445L175.94 112.368V163.767Z" fill="#1D1D21"/>
<path d="M182.769 192.305H148.304C146.457 192.305 144.953 190.815 144.934 188.968L143.421 31.0435C143.402 29.1823 144.896 27.6595 146.758 27.6407L158.122 27.5326C159.983 27.5138 161.506 29.0084 161.525 30.8696L162.869 170.864C162.888 172.711 164.392 174.201 166.239 174.201H182.769C184.63 174.201 186.139 175.71 186.139 177.571V188.935C186.139 190.792 184.63 192.305 182.769 192.305Z" fill="#B7C4F2"/>
<path d="M101.736 154.31L72.7654 117.138C70.829 114.656 71.2755 111.075 73.7571 109.143L79.0493 105.021C81.5309 103.085 85.1123 103.532 87.044 106.013L108.321 133.311L209.103 58.186C211.566 56.2308 215.152 56.6397 217.107 59.1025L221.281 64.3571C223.236 66.8199 222.827 70.406 220.364 72.3612L109.773 155.274C107.292 157.243 103.682 156.811 101.736 154.31Z" fill="#4C6BDA"/>
<path d="M252.792 165V78.728H264.312V165H252.792ZM237.816 114.696V104.2H279.288V114.696H237.816ZM314.554 166.28C309.007 166.28 303.973 164.915 299.45 162.184C294.927 159.368 291.343 155.571 288.698 150.792C286.138 146.013 284.858 140.637 284.858 134.664C284.858 128.691 286.138 123.315 288.698 118.536C291.343 113.757 294.885 109.96 299.322 107.144C303.845 104.328 308.922 102.92 314.554 102.92C319.162 102.92 323.258 103.901 326.842 105.864C330.511 107.741 333.455 110.387 335.674 113.8C337.893 117.128 339.13 121.011 339.386 125.448V143.752C339.13 148.104 337.893 151.987 335.674 155.4C333.541 158.813 330.639 161.501 326.97 163.464C323.386 165.341 319.247 166.28 314.554 166.28ZM316.474 155.4C322.191 155.4 326.799 153.48 330.298 149.64C333.797 145.715 335.546 140.723 335.546 134.664C335.546 130.483 334.735 126.856 333.114 123.784C331.578 120.627 329.359 118.195 326.458 116.488C323.557 114.696 320.186 113.8 316.346 113.8C312.506 113.8 309.093 114.696 306.106 116.488C303.205 118.28 300.901 120.755 299.194 123.912C297.573 126.984 296.762 130.525 296.762 134.536C296.762 138.632 297.573 142.259 299.194 145.416C300.901 148.488 303.247 150.92 306.234 152.712C309.221 154.504 312.634 155.4 316.474 155.4ZM334.778 165V148.616L336.954 133.768L334.778 119.048V104.2H346.426V165H334.778ZM382.526 166.28C379.113 166.28 375.87 165.853 372.798 165C369.811 164.061 367.038 162.781 364.478 161.16C361.918 159.453 359.699 157.448 357.822 155.144L365.246 147.72C367.465 150.451 370.025 152.499 372.926 153.864C375.827 155.144 379.07 155.784 382.654 155.784C386.238 155.784 389.011 155.187 390.974 153.992C392.937 152.712 393.918 150.963 393.918 148.744C393.918 146.525 393.107 144.819 391.486 143.624C389.95 142.344 387.945 141.32 385.47 140.552C382.995 139.699 380.35 138.888 377.534 138.12C374.803 137.267 372.201 136.2 369.726 134.92C367.251 133.64 365.203 131.891 363.582 129.672C362.046 127.453 361.278 124.509 361.278 120.84C361.278 117.171 362.174 114.013 363.966 111.368C365.758 108.637 368.233 106.547 371.39 105.096C374.633 103.645 378.515 102.92 383.038 102.92C387.817 102.92 392.041 103.773 395.71 105.48C399.465 107.101 402.537 109.576 404.926 112.904L397.502 120.328C395.795 118.109 393.662 116.403 391.102 115.208C388.627 114.013 385.811 113.416 382.654 113.416C379.326 113.416 376.766 114.013 374.974 115.208C373.267 116.317 372.414 117.896 372.414 119.944C372.414 121.992 373.182 123.571 374.718 124.68C376.254 125.789 378.259 126.728 380.734 127.496C383.294 128.264 385.939 129.075 388.67 129.928C391.401 130.696 394.003 131.763 396.478 133.128C398.953 134.493 400.958 136.328 402.494 138.632C404.115 140.936 404.926 143.965 404.926 147.72C404.926 153.437 402.878 157.96 398.782 161.288C394.771 164.616 389.353 166.28 382.526 166.28ZM456.735 165L428.319 133.896L456.479 104.2H470.431L439.071 136.968L439.583 130.312L471.583 165H456.735ZM417.823 165V73.608H429.343V165H417.823ZM489.685 166.28C487.296 166.28 485.29 165.469 483.669 163.848C482.133 162.141 481.365 160.136 481.365 157.832C481.365 155.443 482.133 153.48 483.669 151.944C485.29 150.323 487.296 149.512 489.685 149.512C492.074 149.512 494.037 150.323 495.573 151.944C497.194 153.48 498.005 155.443 498.005 157.832C498.005 160.136 497.194 162.141 495.573 163.848C494.037 165.469 492.074 166.28 489.685 166.28ZM520.527 165V95.112C520.527 90.5893 521.508 86.664 523.471 83.336C525.434 79.9227 528.122 77.2347 531.535 75.272C535.034 73.3093 539.087 72.328 543.695 72.328C547.194 72.328 550.223 72.9253 552.783 74.12C555.343 75.3147 557.69 77.064 559.823 79.368L552.271 86.792C551.162 85.5973 549.924 84.7013 548.559 84.104C547.194 83.4213 545.53 83.08 543.567 83.08C539.898 83.08 537.039 84.1467 534.991 86.28C533.028 88.4133 532.047 91.3573 532.047 95.112V165H520.527ZM505.551 114.696V104.2H551.375V114.696H505.551ZM580.916 165.512L554.548 104.2H567.348L586.932 152.2H582.836L603.444 104.2H616.244L587.828 165.512H580.916ZM563.508 190.472L581.428 153.736L587.828 165.512L576.308 190.472H563.508Z" fill="#1D1D21"/>
</svg>
