<svg width="33" height="33" viewBox="0 0 33 33" fill="none" xmlns="http://www.w3.org/2000/svg">
<path d="M28.2287 13.9719L26.5327 9.87641L28.8122 7.18048L25.7219 4.09024L23.0407 6.38158L18.8582 4.66153L17.8964 1H14.8767L13.9004 4.71004L9.814 6.43258L7.18048 4.09024L4.09024 7.18048L6.33587 9.94447L4.6658 14.0506L1 14.9061V17.9963L4.71 19.0092L6.43226 23.0948L4.09024 25.7219L7.18048 28.8122L9.94804 26.5568L13.9744 28.2131L14.9061 31.9024H17.9963L18.9304 28.2145L23.0258 26.5184C23.7085 27.0064 25.7219 28.8122 25.7219 28.8122L28.8122 25.7219L26.5191 23.017L28.2156 18.9203L31.9023 17.9611L31.9024 14.9061L28.2287 13.9719Z" stroke="black" stroke-linecap="round" stroke-linejoin="round"/>
<path d="M16.4513 21.0866C19.0114 21.0866 21.0866 19.0113 21.0866 16.4512C21.0866 13.8911 19.0114 11.8159 16.4513 11.8159C13.8912 11.8159 11.8159 13.8911 11.8159 16.4512C11.8159 19.0113 13.8912 21.0866 16.4513 21.0866Z" stroke="black" stroke-linecap="round" stroke-linejoin="round"/>
</svg>
