<svg width="34" height="34" viewBox="0 0 34 34" fill="none" xmlns="http://www.w3.org/2000/svg">
<path d="M30.6847 14.6908C30.7322 14.6072 30.7657 14.5162 30.7838 14.4217L31.8463 8.75501C31.914 8.37929 31.8296 7.99208 31.6117 7.67859C31.3939 7.36509 31.0604 7.15097 30.6847 7.08334C30.3089 7.01571 29.9217 7.10011 29.6082 7.31796C29.2947 7.53582 29.0806 7.86929 29.013 8.24501L28.4888 11.0783C27.3096 8.92489 25.5473 7.14739 23.4041 5.9497C21.2609 4.75202 18.8235 4.18264 16.3715 4.30687C13.9194 4.43109 11.552 5.2439 9.54084 6.65207C7.52963 8.06023 5.95602 10.0067 5.0005 12.2683C4.86033 12.616 4.86363 13.0049 5.00967 13.3501C5.15571 13.6953 5.43258 13.9685 5.77966 14.11C5.95257 14.1816 6.13796 14.2182 6.32511 14.2178C6.51225 14.2173 6.69746 14.1798 6.87001 14.1073C7.04257 14.0349 7.19906 13.9289 7.33045 13.7957C7.46183 13.6624 7.56551 13.5044 7.6355 13.3308C8.39842 11.4563 9.71057 9.85643 11.3995 8.7414C13.0885 7.62638 15.0753 7.04838 17.0988 7.08334C18.8885 7.07499 20.6486 7.53965 22.2009 8.43025C23.7533 9.32086 25.0428 10.6058 25.9388 12.155L23.6013 11.7725C23.4153 11.7427 23.2252 11.7499 23.0419 11.7936C22.8587 11.8373 22.6858 11.9167 22.5332 12.0272C22.3806 12.1377 22.2513 12.2771 22.1526 12.4376C22.0539 12.5981 21.9878 12.7765 21.958 12.9625C21.9282 13.1485 21.9354 13.3386 21.9791 13.5219C22.0228 13.7052 22.1021 13.878 22.2126 14.0306C22.3232 14.1832 22.4626 14.3126 22.6231 14.4113C22.7836 14.51 22.962 14.5761 23.148 14.6058L29.1688 15.6117H29.3955C29.5599 15.6137 29.7233 15.5848 29.8772 15.5267C29.9291 15.507 29.977 15.4782 30.0188 15.4417C30.1204 15.4039 30.2159 15.3514 30.3022 15.2858L30.4155 15.1442C30.489 15.0754 30.5554 14.9995 30.6138 14.9175C30.6483 14.8458 30.6722 14.7694 30.6847 14.6908Z" fill="white"/>
<path d="M28.1632 19.9325C27.9894 19.8613 27.8032 19.8254 27.6154 19.8268C27.4276 19.8282 27.2419 19.8669 27.0692 19.9408C26.8965 20.0146 26.7402 20.122 26.6094 20.2568C26.4786 20.3916 26.3759 20.551 26.3073 20.7258C25.5391 22.5807 24.2318 24.1623 22.5548 25.266C20.8778 26.3697 18.9081 26.9447 16.9007 26.9167C15.111 26.925 13.3509 26.4604 11.7986 25.5698C10.2462 24.6791 8.95674 23.3942 8.06067 21.845L10.3982 22.2275H10.6248C11.0006 22.2576 11.3728 22.1371 11.6598 21.8927C11.9467 21.6483 12.1248 21.2999 12.1548 20.9242C12.1849 20.5484 12.0645 20.1762 11.82 19.8892C11.5756 19.6023 11.2272 19.4242 10.8515 19.3942L4.83067 18.4167C4.67614 18.3882 4.5177 18.3882 4.36317 18.4167H4.24983C4.08951 18.4593 3.93663 18.5262 3.7965 18.615C3.70098 18.6888 3.61529 18.7745 3.5415 18.87L3.414 19.0117C3.37021 19.0971 3.33691 19.1874 3.31483 19.2808C3.26519 19.3532 3.23139 19.4353 3.21567 19.5217L2.15317 25.1883C2.10767 25.3766 2.10126 25.5722 2.13434 25.7631C2.16742 25.9539 2.2393 26.136 2.34551 26.298C2.45173 26.4599 2.59004 26.5984 2.75188 26.7048C2.91373 26.8112 3.09569 26.8833 3.2865 26.9167H3.5415C3.87695 26.9221 4.20346 26.8084 4.46288 26.5956C4.72231 26.3829 4.89782 26.085 4.95817 25.755L5.48233 22.9217C6.66032 25.0756 8.4215 26.854 10.5639 28.0528C12.7064 29.2517 15.1433 29.8225 17.5952 29.6997C20.0472 29.577 22.4149 28.7657 24.4269 27.3589C26.4389 25.952 28.0137 24.0067 28.9707 21.7458C29.1005 21.3981 29.0886 21.0132 28.9376 20.6741C28.7866 20.335 28.5085 20.0687 28.1632 19.9325Z" fill="white"/>
</svg>
