<svg version="1.1" id="Layer_1" xmlns="http://www.w3.org/2000/svg" xmlns:xlink="http://www.w3.org/1999/xlink" x="0px" y="0px"
	 width="100%" viewBox="0 0 1240 320" enable-background="new 0 0 1240 320" xml:space="preserve">
<path fill="#FFFFFF" opacity="1.000000" stroke="none" 
	d="
M902.000000,321.000000 
	C601.333313,321.000000 301.166656,321.000000 1.000000,321.000000 
	C1.000000,214.333328 1.000000,107.666664 1.000000,1.000000 
	C414.333344,1.000000 827.666687,1.000000 1241.000000,1.000000 
	C1241.000000,107.666664 1241.000000,214.333328 1241.000000,321.000000 
	C1128.166626,321.000000 1015.333313,321.000000 902.000000,321.000000 
M1206.575195,136.905121 
	C1205.054199,127.225082 1204.483765,117.275009 1201.825439,107.918076 
	C1195.130981,84.354675 1181.954590,65.415016 1157.622437,57.742550 
	C1146.881714,54.355793 1135.064087,53.534981 1123.686401,53.197300 
	C1100.877197,52.520340 1078.034424,52.972980 1055.205444,52.975292 
	C1053.772583,52.975437 1052.339722,53.113255 1051.156860,53.174149 
	C1051.156860,115.369164 1051.156860,177.100723 1051.156860,238.082657 
	C1080.779175,238.082657 1110.124268,239.153717 1139.352051,237.761383 
	C1165.145874,236.532623 1184.383301,223.201340 1196.042358,199.609833 
	C1205.718506,180.030762 1207.604370,159.201187 1206.575195,136.905121 
M497.797333,185.745346 
	C507.027191,202.288208 516.356750,218.776978 525.394897,235.423904 
	C527.020203,238.417419 528.854553,239.181015 532.005615,239.106094 
	C540.498352,238.904160 548.999084,239.037064 557.496643,239.037064 
	C560.190857,239.037064 562.885071,239.037048 566.126465,239.037048 
	C549.340820,209.911224 533.035095,181.618164 516.754150,153.368179 
	C532.129028,136.877518 547.139709,120.777420 562.816284,103.963158 
	C548.158997,103.963158 534.693481,103.869621 521.232910,104.084900 
	C519.602295,104.110985 517.613892,105.460464 516.441345,106.775970 
	C504.359924,120.330147 492.391327,133.985275 480.470612,147.681290 
	C479.580688,148.703751 479.300873,150.257233 478.737396,151.563843 
	C478.104706,151.031189 477.472015,150.498550 476.839325,149.965912 
	C476.839325,117.713745 476.839325,85.461578 476.839325,53.195473 
	C464.915588,53.195473 453.325134,53.195473 441.528229,53.195473 
	C441.528229,115.154816 441.528229,176.881546 441.528229,238.723541 
	C453.480347,238.723541 465.193024,238.723541 477.075562,238.723541 
	C477.075562,225.429321 477.041443,212.447800 477.120117,199.466965 
	C477.129608,197.900665 477.214966,195.770706 478.174255,194.867813 
	C483.559845,189.798706 489.224121,185.025696 494.656921,180.271011 
	C495.116821,181.092102 496.249908,183.115112 497.797333,185.745346 
M767.338928,203.168915 
	C770.587158,211.700302 773.044617,220.650970 777.288147,228.654663 
	C782.351807,238.205338 779.446167,246.039825 774.784302,254.212463 
	C770.213257,262.225983 763.258057,266.015778 754.225525,265.902832 
	C749.144287,265.839264 744.070496,265.177094 738.481750,264.745087 
	C739.502991,273.900085 740.491760,282.764221 741.639587,293.054260 
	C751.625916,293.190399 761.576416,293.997589 771.423706,293.315125 
	C789.771912,292.043518 802.226929,282.138458 809.133606,265.161194 
	C809.758606,263.624969 810.532288,262.146027 811.102173,260.591064 
	C825.096130,222.408173 839.075806,184.220047 853.048645,146.029404 
	C858.112549,132.188583 863.152161,118.338867 868.324768,104.158920 
	C855.714844,104.158920 843.617188,104.158920 831.338562,104.158920 
	C821.023560,135.464752 810.723572,166.724915 799.990601,199.299271 
	C799.276733,197.195602 799.036499,196.490005 798.797852,195.783875 
	C789.495605,168.262253 780.187683,140.742554 770.894653,113.217842 
	C767.772217,103.969620 767.789551,103.963776 757.786926,103.963776 
	C748.586609,103.963776 739.386353,103.963776 729.742737,103.963776 
	C742.375549,137.287643 754.724243,169.862076 767.338928,203.168915 
M167.547501,109.959221 
	C157.009598,117.197319 151.426590,127.642052 147.974075,140.015839 
	C158.877441,141.708939 169.502365,143.358810 180.013077,144.990936 
	C187.109802,130.420303 192.295883,127.307030 207.886398,128.118500 
	C209.873398,128.221924 211.856018,128.553299 213.822205,128.887650 
	C223.034302,130.454163 227.167419,134.930496 227.888138,144.212738 
	C228.054611,146.356827 227.912720,148.524857 227.912720,151.435699 
	C220.798721,153.289566 213.614395,155.193771 206.413086,157.031357 
	C193.555176,160.312332 180.370712,162.653503 167.902710,167.037033 
	C152.112717,172.588501 143.768646,186.529510 144.162857,203.237076 
	C144.551910,219.725800 154.327301,233.836411 169.873993,238.909821 
	C189.951035,245.461670 208.599060,242.177994 225.379028,229.150177 
	C227.141708,227.781662 228.847961,226.340454 230.808289,224.747833 
	C232.447342,229.762573 233.929886,234.298538 235.428192,238.882675 
	C247.164642,238.882675 258.609283,238.882675 270.833099,238.882675 
	C259.244659,216.336960 263.751678,192.383987 263.015228,168.965973 
	C262.670044,157.989059 262.654602,146.999054 262.152161,136.030441 
	C261.311371,117.675934 249.935013,108.261826 234.282944,103.991829 
	C221.119492,100.400742 207.624680,100.364716 194.118042,101.616333 
	C184.921417,102.468559 176.086182,104.554932 167.547501,109.959221 
M313.113983,107.524078 
	C311.669403,108.345078 310.154114,109.063469 308.791290,110.003052 
	C295.909027,118.884598 289.683136,131.123932 291.203461,146.755646 
	C292.648987,161.618042 301.219086,171.371109 314.720520,176.991531 
	C319.311768,178.902771 324.010925,180.649033 328.797424,181.978882 
	C341.919891,185.624817 355.131134,188.949982 368.271545,192.533096 
	C372.343719,193.643509 375.518982,195.916992 376.013458,200.609238 
	C376.552338,205.723251 374.753723,209.699661 370.383820,212.521484 
	C352.973114,223.764236 329.028351,215.931976 321.960052,196.676300 
	C321.870819,196.433258 321.493439,196.295959 321.154114,196.035187 
	C309.557312,197.681793 297.888397,199.338638 286.006958,201.025665 
	C291.125244,218.827087 301.992065,230.995392 318.962708,236.949142 
	C339.199890,244.048843 359.848724,243.934708 380.316467,237.721252 
	C390.287109,234.694427 398.385071,228.612122 404.528534,220.103210 
	C419.100800,199.920074 412.715088,173.991470 390.169037,163.706528 
	C382.064667,160.009521 373.317108,157.652451 364.749939,155.057266 
	C353.318298,151.594376 341.661957,148.831909 330.367188,144.989471 
	C327.742767,144.096664 324.654877,140.106445 324.570496,137.452713 
	C324.484924,134.761566 327.224304,130.833939 329.810455,129.391342 
	C346.092224,120.309280 365.881744,126.485718 374.259186,142.982651 
	C385.208954,141.001587 396.231689,139.007309 407.484314,136.971451 
	C402.862488,121.815643 394.643616,110.322693 379.797150,105.677193 
	C357.777374,98.787140 335.597748,98.624588 313.113983,107.524078 
M716.843567,50.690403 
	C708.719055,50.824764 700.435547,49.997284 692.505554,51.308220 
	C679.009949,53.539230 666.186829,61.330982 664.720825,79.951035 
	C664.098938,87.849510 663.885986,95.780190 663.463501,104.166916 
	C656.888855,104.166916 650.493286,104.166916 644.313721,104.166916 
	C644.313721,113.399895 644.313721,122.146301 644.313721,131.185303 
	C650.901672,131.185303 657.176758,131.185303 663.872437,131.185303 
	C663.872437,167.206909 663.872437,202.927582 663.872437,238.668274 
	C675.999390,238.668274 687.689270,238.668274 699.669312,238.668274 
	C699.669312,202.702011 699.669312,167.102905 699.669312,130.921143 
	C708.670959,130.921143 717.388794,130.921143 725.825928,130.921143 
	C725.825928,121.595863 725.825928,112.857147 725.825928,103.704636 
	C716.911560,103.704636 708.337646,103.704636 699.820557,103.704636 
	C699.820557,98.950562 699.597107,94.611511 699.865845,90.303162 
	C700.473145,80.568436 704.351807,76.903625 714.161682,77.109566 
	C719.550842,77.222702 724.924866,78.060341 730.490173,78.588837 
	C732.067261,70.491043 733.610840,62.565151 735.269470,54.048561 
	C729.092529,52.908104 723.412476,51.859398 716.843567,50.690403 
M68.159981,178.499939 
	C68.429039,189.818726 68.448082,201.150360 69.029358,212.453079 
	C69.785034,227.146912 75.827728,235.708984 88.336815,239.691681 
	C102.054535,244.059204 115.628342,242.217224 128.950516,237.582367 
	C129.841644,237.272339 131.139175,236.083511 131.081299,235.402557 
	C130.329910,226.561844 129.367233,217.739075 128.427643,208.618835 
	C125.405067,209.540726 123.222031,210.310394 120.986588,210.871109 
	C108.824295,213.921646 104.456978,210.740326 104.234344,198.256454 
	C104.005669,185.434692 104.103470,172.606964 104.078789,159.781815 
	C104.060600,150.335953 104.075211,140.890015 104.075211,130.957031 
	C112.408371,130.957031 120.296341,130.957031 128.231110,130.957031 
	C128.231110,121.707695 128.231110,112.955002 128.231110,103.732819 
	C120.044945,103.732819 112.135208,103.732819 103.841377,103.732819 
	C103.841377,88.065659 103.841377,72.870483 103.841377,57.096348 
	C92.278206,63.885002 81.227173,70.273781 70.329361,76.914009 
	C69.151543,77.631683 68.298309,79.790695 68.255333,81.308342 
	C68.044891,88.740349 68.159935,96.181564 68.159935,104.144180 
	C62.459957,104.144180 57.239895,104.144180 52.297245,104.144180 
	C52.297245,113.426231 52.297245,122.170898 52.297245,131.247818 
	C57.728012,131.247818 62.825726,131.247818 68.159981,131.247818 
	C68.159981,146.895248 68.159981,162.197586 68.159981,178.499939 
M986.502563,140.039886 
	C992.935242,140.039886 999.367920,140.039886 1005.939270,140.039886 
	C1005.939270,127.844116 1005.939270,116.124466 1005.939270,104.295425 
	C994.089783,104.295425 982.427124,104.295425 970.776794,104.295425 
	C970.776794,116.357651 970.776794,128.082291 970.776794,140.039886 
	C975.881226,140.039886 980.693115,140.039886 986.502563,140.039886 
M979.559692,239.039886 
	C988.314026,239.039886 997.068298,239.039886 1005.921814,239.039886 
	C1005.921814,226.827194 1005.921814,215.112900 1005.921814,203.342743 
	C994.057190,203.342743 982.397400,203.342743 970.805298,203.342743 
	C970.805298,215.404037 970.805298,227.114059 970.805298,239.039886 
	C973.612366,239.039886 976.096802,239.039886 979.559692,239.039886 
M603.502197,203.000870 
	C598.260559,203.000870 593.018860,203.000870 588.029663,203.000870 
	C588.029663,215.403183 588.029663,227.109344 588.029663,238.770996 
	C599.925354,238.770996 611.489380,238.770996 623.073853,238.770996 
	C623.073853,226.793930 623.073853,215.079773 623.073853,203.000870 
	C616.736511,203.000870 610.618652,203.000870 603.502197,203.000870 
z"/>
<path fill="#010101" opacity="1.000000" stroke="none" 
	d="
M1206.611572,137.373276 
	C1207.604370,159.201187 1205.718506,180.030762 1196.042358,199.609833 
	C1184.383301,223.201340 1165.145874,236.532623 1139.352051,237.761383 
	C1110.124268,239.153717 1080.779175,238.082657 1051.156860,238.082657 
	C1051.156860,177.100723 1051.156860,115.369164 1051.156860,53.174149 
	C1052.339722,53.113255 1053.772583,52.975437 1055.205444,52.975292 
	C1078.034424,52.972980 1100.877197,52.520340 1123.686401,53.197300 
	C1135.064087,53.534981 1146.881714,54.355793 1157.622437,57.742550 
	C1181.954590,65.415016 1195.130981,84.354675 1201.825439,107.918076 
	C1204.483765,117.275009 1205.054199,127.225082 1206.611572,137.373276 
M1136.964722,206.710052 
	C1151.622925,203.884445 1160.401855,194.809479 1163.952515,180.644211 
	C1169.424805,158.812943 1169.733521,136.742310 1164.623901,114.891830 
	C1161.234863,100.398651 1152.745972,88.720993 1137.286377,86.401451 
	C1121.307617,84.003975 1104.949585,84.133972 1088.556519,83.146217 
	C1088.556519,125.559868 1088.556519,166.600403 1088.556519,208.508453 
	C1104.599365,207.954147 1120.360840,207.409561 1136.964722,206.710052 
z"/>
<path fill="#020202" opacity="1.000000" stroke="none" 
	d="
M497.590149,185.441742 
	C496.249908,183.115112 495.116821,181.092102 494.656921,180.271011 
	C489.224121,185.025696 483.559845,189.798706 478.174255,194.867813 
	C477.214966,195.770706 477.129608,197.900665 477.120117,199.466965 
	C477.041443,212.447800 477.075562,225.429321 477.075562,238.723541 
	C465.193024,238.723541 453.480347,238.723541 441.528229,238.723541 
	C441.528229,176.881546 441.528229,115.154816 441.528229,53.195473 
	C453.325134,53.195473 464.915588,53.195473 476.839325,53.195473 
	C476.839325,85.461578 476.839325,117.713745 476.839325,149.965912 
	C477.472015,150.498550 478.104706,151.031189 478.737396,151.563843 
	C479.300873,150.257233 479.580688,148.703751 480.470612,147.681290 
	C492.391327,133.985275 504.359924,120.330147 516.441345,106.775970 
	C517.613892,105.460464 519.602295,104.110985 521.232910,104.084900 
	C534.693481,103.869621 548.158997,103.963158 562.816284,103.963158 
	C547.139709,120.777420 532.129028,136.877518 516.754150,153.368179 
	C533.035095,181.618164 549.340820,209.911224 566.126465,239.037048 
	C562.885071,239.037048 560.190857,239.037064 557.496643,239.037064 
	C548.999084,239.037064 540.498352,238.904160 532.005615,239.106094 
	C528.854553,239.181015 527.020203,238.417419 525.394897,235.423904 
	C516.356750,218.776978 507.027191,202.288208 497.590149,185.441742 
z"/>
<path fill="#020202" opacity="1.000000" stroke="none" 
	d="
M767.205933,202.802704 
	C754.724243,169.862076 742.375549,137.287643 729.742737,103.963776 
	C739.386353,103.963776 748.586609,103.963776 757.786926,103.963776 
	C767.789551,103.963776 767.772217,103.969620 770.894653,113.217842 
	C780.187683,140.742554 789.495605,168.262253 798.797852,195.783875 
	C799.036499,196.490005 799.276733,197.195602 799.990601,199.299271 
	C810.723572,166.724915 821.023560,135.464752 831.338562,104.158920 
	C843.617188,104.158920 855.714844,104.158920 868.324768,104.158920 
	C863.152161,118.338867 858.112549,132.188583 853.048645,146.029404 
	C839.075806,184.220047 825.096130,222.408173 811.102173,260.591064 
	C810.532288,262.146027 809.758606,263.624969 809.133606,265.161194 
	C802.226929,282.138458 789.771912,292.043518 771.423706,293.315125 
	C761.576416,293.997589 751.625916,293.190399 741.639587,293.054260 
	C740.491760,282.764221 739.502991,273.900085 738.481750,264.745087 
	C744.070496,265.177094 749.144287,265.839264 754.225525,265.902832 
	C763.258057,266.015778 770.213257,262.225983 774.784302,254.212463 
	C779.446167,246.039825 782.351807,238.205338 777.288147,228.654663 
	C773.044617,220.650970 770.587158,211.700302 767.205933,202.802704 
z"/>
<path fill="#020202" opacity="1.000000" stroke="none" 
	d="
M167.847519,109.754555 
	C176.086182,104.554932 184.921417,102.468559 194.118042,101.616333 
	C207.624680,100.364716 221.119492,100.400742 234.282944,103.991829 
	C249.935013,108.261826 261.311371,117.675934 262.152161,136.030441 
	C262.654602,146.999054 262.670044,157.989059 263.015228,168.965973 
	C263.751678,192.383987 259.244659,216.336960 270.833099,238.882675 
	C258.609283,238.882675 247.164642,238.882675 235.428192,238.882675 
	C233.929886,234.298538 232.447342,229.762573 230.808289,224.747833 
	C228.847961,226.340454 227.141708,227.781662 225.379028,229.150177 
	C208.599060,242.177994 189.951035,245.461670 169.873993,238.909821 
	C154.327301,233.836411 144.551910,219.725800 144.162857,203.237076 
	C143.768646,186.529510 152.112717,172.588501 167.902710,167.037033 
	C180.370712,162.653503 193.555176,160.312332 206.413086,157.031357 
	C213.614395,155.193771 220.798721,153.289566 227.912720,151.435699 
	C227.912720,148.524857 228.054611,146.356827 227.888138,144.212738 
	C227.167419,134.930496 223.034302,130.454163 213.822205,128.887650 
	C211.856018,128.553299 209.873398,128.221924 207.886398,128.118500 
	C192.295883,127.307030 187.109802,130.420303 180.013077,144.990936 
	C169.502365,143.358810 158.877441,141.708939 147.974075,140.015839 
	C151.426590,127.642052 157.009598,117.197319 167.847519,109.754555 
M202.074463,180.574860 
	C198.576675,181.592758 195.023926,182.454483 191.592819,183.661911 
	C184.957687,185.996841 180.523956,190.357803 180.035645,197.721573 
	C179.562424,204.857742 183.881165,211.753220 190.554443,214.976547 
	C203.509277,221.234009 223.840027,212.052200 226.661560,198.010635 
	C228.199677,190.356064 227.890671,182.330353 228.424988,174.318100 
	C219.300751,176.450943 211.077087,178.373260 202.074463,180.574860 
z"/>
<path fill="#020202" opacity="1.000000" stroke="none" 
	d="
M313.441345,107.337204 
	C335.597748,98.624588 357.777374,98.787140 379.797150,105.677193 
	C394.643616,110.322693 402.862488,121.815643 407.484314,136.971451 
	C396.231689,139.007309 385.208954,141.001587 374.259186,142.982651 
	C365.881744,126.485718 346.092224,120.309280 329.810455,129.391342 
	C327.224304,130.833939 324.484924,134.761566 324.570496,137.452713 
	C324.654877,140.106445 327.742767,144.096664 330.367188,144.989471 
	C341.661957,148.831909 353.318298,151.594376 364.749939,155.057266 
	C373.317108,157.652451 382.064667,160.009521 390.169037,163.706528 
	C412.715088,173.991470 419.100800,199.920074 404.528534,220.103210 
	C398.385071,228.612122 390.287109,234.694427 380.316467,237.721252 
	C359.848724,243.934708 339.199890,244.048843 318.962708,236.949142 
	C301.992065,230.995392 291.125244,218.827087 286.006958,201.025665 
	C297.888397,199.338638 309.557312,197.681793 321.154114,196.035187 
	C321.493439,196.295959 321.870819,196.433258 321.960052,196.676300 
	C329.028351,215.931976 352.973114,223.764236 370.383820,212.521484 
	C374.753723,209.699661 376.552338,205.723251 376.013458,200.609238 
	C375.518982,195.916992 372.343719,193.643509 368.271545,192.533096 
	C355.131134,188.949982 341.919891,185.624817 328.797424,181.978882 
	C324.010925,180.649033 319.311768,178.902771 314.720520,176.991531 
	C301.219086,171.371109 292.648987,161.618042 291.203461,146.755646 
	C289.683136,131.123932 295.909027,118.884598 308.791290,110.003052 
	C310.154114,109.063469 311.669403,108.345078 313.441345,107.337204 
z"/>
<path fill="#020202" opacity="1.000000" stroke="none" 
	d="
M717.287964,50.750549 
	C723.412476,51.859398 729.092529,52.908104 735.269470,54.048561 
	C733.610840,62.565151 732.067261,70.491043 730.490173,78.588837 
	C724.924866,78.060341 719.550842,77.222702 714.161682,77.109566 
	C704.351807,76.903625 700.473145,80.568436 699.865845,90.303162 
	C699.597107,94.611511 699.820557,98.950562 699.820557,103.704636 
	C708.337646,103.704636 716.911560,103.704636 725.825928,103.704636 
	C725.825928,112.857147 725.825928,121.595863 725.825928,130.921143 
	C717.388794,130.921143 708.670959,130.921143 699.669312,130.921143 
	C699.669312,167.102905 699.669312,202.702011 699.669312,238.668274 
	C687.689270,238.668274 675.999390,238.668274 663.872437,238.668274 
	C663.872437,202.927582 663.872437,167.206909 663.872437,131.185303 
	C657.176758,131.185303 650.901672,131.185303 644.313721,131.185303 
	C644.313721,122.146301 644.313721,113.399895 644.313721,104.166916 
	C650.493286,104.166916 656.888855,104.166916 663.463501,104.166916 
	C663.885986,95.780190 664.098938,87.849510 664.720825,79.951035 
	C666.186829,61.330982 679.009949,53.539230 692.505554,51.308220 
	C700.435547,49.997284 708.719055,50.824764 717.287964,50.750549 
z"/>
<path fill="#020202" opacity="1.000000" stroke="none" 
	d="
M68.159981,177.999924 
	C68.159981,162.197586 68.159981,146.895248 68.159981,131.247818 
	C62.825726,131.247818 57.728012,131.247818 52.297245,131.247818 
	C52.297245,122.170898 52.297245,113.426231 52.297245,104.144180 
	C57.239895,104.144180 62.459957,104.144180 68.159935,104.144180 
	C68.159935,96.181564 68.044891,88.740349 68.255333,81.308342 
	C68.298309,79.790695 69.151543,77.631683 70.329361,76.914009 
	C81.227173,70.273781 92.278206,63.885002 103.841377,57.096348 
	C103.841377,72.870483 103.841377,88.065659 103.841377,103.732819 
	C112.135208,103.732819 120.044945,103.732819 128.231110,103.732819 
	C128.231110,112.955002 128.231110,121.707695 128.231110,130.957031 
	C120.296341,130.957031 112.408371,130.957031 104.075211,130.957031 
	C104.075211,140.890015 104.060600,150.335953 104.078789,159.781815 
	C104.103470,172.606964 104.005669,185.434692 104.234344,198.256454 
	C104.456978,210.740326 108.824295,213.921646 120.986588,210.871109 
	C123.222031,210.310394 125.405067,209.540726 128.427643,208.618835 
	C129.367233,217.739075 130.329910,226.561844 131.081299,235.402557 
	C131.139175,236.083511 129.841644,237.272339 128.950516,237.582367 
	C115.628342,242.217224 102.054535,244.059204 88.336815,239.691681 
	C75.827728,235.708984 69.785034,227.146912 69.029358,212.453079 
	C68.448082,201.150360 68.429039,189.818726 68.159981,177.999924 
z"/>
<path fill="#040404" opacity="1.000000" stroke="none" 
	d="
M986.003784,140.039886 
	C980.693115,140.039886 975.881226,140.039886 970.776794,140.039886 
	C970.776794,128.082291 970.776794,116.357651 970.776794,104.295425 
	C982.427124,104.295425 994.089783,104.295425 1005.939270,104.295425 
	C1005.939270,116.124466 1005.939270,127.844116 1005.939270,140.039886 
	C999.367920,140.039886 992.935242,140.039886 986.003784,140.039886 
z"/>
<path fill="#040404" opacity="1.000000" stroke="none" 
	d="
M979.070435,239.039886 
	C976.096802,239.039886 973.612366,239.039886 970.805298,239.039886 
	C970.805298,227.114059 970.805298,215.404037 970.805298,203.342743 
	C982.397400,203.342743 994.057190,203.342743 1005.921814,203.342743 
	C1005.921814,215.112900 1005.921814,226.827194 1005.921814,239.039886 
	C997.068298,239.039886 988.314026,239.039886 979.070435,239.039886 
z"/>
<path fill="#000000" opacity="1.000000" stroke="none" 
	d="
M604.001526,203.000870 
	C610.618652,203.000870 616.736511,203.000870 623.073853,203.000870 
	C623.073853,215.079773 623.073853,226.793930 623.073853,238.770996 
	C611.489380,238.770996 599.925354,238.770996 588.029663,238.770996 
	C588.029663,227.109344 588.029663,215.403183 588.029663,203.000870 
	C593.018860,203.000870 598.260559,203.000870 604.001526,203.000870 
z"/>
<path fill="#FDFDFD" opacity="1.000000" stroke="none" 
	d="
M1136.543457,206.787506 
	C1120.360840,207.409561 1104.599365,207.954147 1088.556519,208.508453 
	C1088.556519,166.600403 1088.556519,125.559868 1088.556519,83.146217 
	C1104.949585,84.133972 1121.307617,84.003975 1137.286377,86.401451 
	C1152.745972,88.720993 1161.234863,100.398651 1164.623901,114.891830 
	C1169.733521,136.742310 1169.424805,158.812943 1163.952515,180.644211 
	C1160.401855,194.809479 1151.622925,203.884445 1136.543457,206.787506 
z"/>
<path fill="#FCFCFC" opacity="1.000000" stroke="none" 
	d="
M202.463943,180.435211 
	C211.077087,178.373260 219.300751,176.450943 228.424988,174.318100 
	C227.890671,182.330353 228.199677,190.356064 226.661560,198.010635 
	C223.840027,212.052200 203.509277,221.234009 190.554443,214.976547 
	C183.881165,211.753220 179.562424,204.857742 180.035645,197.721573 
	C180.523956,190.357803 184.957687,185.996841 191.592819,183.661911 
	C195.023926,182.454483 198.576675,181.592758 202.463943,180.435211 
z"/>
</svg>